HIERARCHY
ROOT root
{
	OFFSET 0.000000 0.000000 0.000000
	CHANNELS 6 Xposition Yposition Zposition Zrotation Yrotation Xrotation
	JOINT lhip
	{
		OFFSET 0.058581 -0.082280 -0.017664
		CHANNELS 3 Zrotation Yrotation Xrotation
		JOINT lknee
		{
			OFFSET 0.043451 -0.386469 0.008037
			CHANNELS 3 Zrotation Yrotation Xrotation
			JOINT lankle
			{
				OFFSET -0.014790 -0.426874 -0.037428
				CHANNELS 3 Zrotation Yrotation Xrotation
				JOINT ltoe
				{
					OFFSET 0.041054 -0.060286 0.122042
					CHANNELS 3 Zrotation Yrotation Xrotation
					End Site
					{
						OFFSET 0.000000 0.000000 0.000000
					}
				}
			}
		}
	}
	JOINT rhip
	{
		OFFSET -0.060310 -0.090513 -0.013543
		CHANNELS 3 Zrotation Yrotation Xrotation
		JOINT rknee
		{
			OFFSET -0.043257 -0.383688 -0.004843
			CHANNELS 3 Zrotation Yrotation Xrotation
			JOINT rankle
			{
				OFFSET 0.019056 -0.420046 -0.034562
				CHANNELS 3 Zrotation Yrotation Xrotation
				JOINT rtoe
				{
					OFFSET -0.034840 -0.062106 0.130323
					CHANNELS 3 Zrotation Yrotation Xrotation
					End Site
					{
						OFFSET 0.000000 0.000000 0.000000
					}
				}
			}
		}
	}
	JOINT lowerback
	{
		OFFSET 0.004439 0.124404 -0.038385
		CHANNELS 3 Zrotation Yrotation Xrotation
		JOINT upperback
		{
			OFFSET 0.004488 0.137956 0.026820
			CHANNELS 3 Zrotation Yrotation Xrotation
			JOINT chest
			{
				OFFSET -0.002265 0.056032 0.002855
				CHANNELS 3 Zrotation Yrotation Xrotation
				JOINT lowerneck
				{
					OFFSET -0.013390 0.211636 -0.033468
					CHANNELS 3 Zrotation Yrotation Xrotation
					JOINT upperneck
					{
						OFFSET 0.010113 0.088937 0.050410
						CHANNELS 3 Zrotation Yrotation Xrotation
						End Site
						{
							OFFSET 0.000000 0.000000 0.000000
						}
					}
				}
				JOINT lclavicle
				{
					OFFSET 0.071702 0.114000 -0.018898
					CHANNELS 3 Zrotation Yrotation Xrotation
					JOINT lshoulder
					{
						OFFSET 0.122921 0.045205 -0.019046
						CHANNELS 3 Zrotation Yrotation Xrotation
						JOINT lelbow
						{
							OFFSET 0.255332 -0.015649 -0.022946
							CHANNELS 3 Zrotation Yrotation Xrotation
							JOINT lwrist
							{
								OFFSET 0.265709 0.012698 -0.007375
								CHANNELS 3 Zrotation Yrotation Xrotation
								End Site
								{
									OFFSET 0.000000 0.000000 0.000000
								}
							}
						}
					}
				}
				JOINT rclavicle
				{
					OFFSET -0.082954 0.112472 -0.023707
					CHANNELS 3 Zrotation Yrotation Xrotation
					JOINT rshoulder
					{
						OFFSET -0.113228 0.046853 -0.008472
						CHANNELS 3 Zrotation Yrotation Xrotation
						JOINT relbow
						{
							OFFSET -0.260127 -0.014369 -0.031269
							CHANNELS 3 Zrotation Yrotation Xrotation
							JOINT rwrist
							{
								OFFSET -0.269108 0.006794 -0.006027
								CHANNELS 3 Zrotation Yrotation Xrotation
								End Site
								{
									OFFSET 0.000000 0.000000 0.000000
								}
							}
						}
					}
				}
			}
		}
	}
}
MOTION
Frames: 16
Frame Time: 0.033333
0.139659 -1.581687 1.003528 -122.769077 -1.481974 88.188283 10.429908 -4.323606 -34.076218 -6.912067 -6.710178 10.657537 -3.950075 5.083093 -3.247986 0.000000 -0.000000 0.000000 4.299710 -9.501672 2.902855 6.955702 5.881377 18.067945 2.212366 5.503986 -13.401207 0.000000 -0.000000 0.000000 -1.621672 8.996455 14.182853 1.590852 -2.838433 -2.472879 -0.063461 2.571408 -1.674372 5.087300 -4.131160 8.670401 8.062514 -14.389098 11.723895 -23.672139 4.595049 0.521410 -54.974890 -4.945620 7.688052 14.060045 -22.421683 1.094622 1.963245 -3.574212 -7.853882 21.898676 1.626653 4.013804 52.247761 6.320619 10.109392 -6.611733 27.021920 14.331092 3.965789 3.855894 -6.356235 
0.111364 -1.567225 0.999288 -126.050158 -1.360155 87.871390 10.403573 -5.611875 -35.014093 -6.838723 -8.894320 10.540921 -6.644973 2.864460 -4.846345 0.000000 -0.000000 0.000000 3.754415 -7.528671 6.421737 6.870587 7.409337 17.007513 2.617783 5.167176 -13.875714 0.000000 -0.000000 0.000000 -1.374198 9.443031 14.044494 1.655371 -2.991766 -2.167335 -0.365129 2.948358 -1.736025 5.441073 -3.446645 8.138028 7.736767 -14.342885 11.541801 -23.841285 5.032017 0.070194 -54.554954 -4.257785 7.669812 13.957714 -21.798985 0.661213 3.141030 -3.672629 -7.694328 22.105750 1.511180 3.576492 52.256978 6.266980 10.764188 -6.444099 26.849255 14.431839 2.828418 3.805059 -6.927627 
0.082215 -1.551710 0.994499 -128.967093 -1.501972 87.693495 10.167137 -7.169561 -34.682198 -7.528893 -8.620102 12.725677 -0.719635 4.391004 -7.571411 0.000000 -0.000000 0.000000 3.350700 -5.698976 8.979026 6.552420 9.215520 17.303592 2.785968 3.780022 -13.933262 0.000000 -0.000000 0.000000 -1.829227 9.590152 13.912383 1.822219 -2.717009 -2.239523 -0.368973 3.065624 -1.725545 5.673832 -3.418344 7.718171 7.694334 -13.943243 11.553300 -23.853892 5.109011 0.310337 -54.669281 -4.194219 7.191170 14.825977 -20.658175 0.617632 3.040299 -3.552908 -7.949845 22.154062 1.390159 3.471351 52.708118 5.812121 11.293888 -6.968370 26.846222 14.374872 2.593480 3.721460 -7.062339 
0.035661 -1.528454 0.989270 -132.461198 -1.757324 87.538603 8.470502 -10.778160 -33.092631 -10.051945 -13.761006 17.502935 -6.140087 2.997200 -2.431965 0.000000 -0.000000 0.000000 2.758368 -2.509156 12.294301 5.870231 10.202054 18.345533 3.420794 1.943235 -12.491365 0.000000 -0.000000 0.000000 -2.340008 9.447630 13.135203 2.219971 -2.531622 -1.995097 -0.436114 2.700024 -1.660571 5.929988 -3.230581 8.007966 7.763384 -13.548310 10.775160 -24.140309 5.301743 0.356166 -54.041929 -3.919757 7.949659 14.652095 -19.187384 0.216348 5.139462 -3.866602 -8.544199 22.756063 0.852253 2.988232 52.201929 4.885821 12.444517 -7.065393 26.431185 13.808679 -0.452615 3.236766 -7.796909 
0.019749 -1.520410 0.988168 -133.469090 -1.924965 87.586435 7.761015 -11.971466 -32.859105 -8.242206 -12.233690 18.325421 -6.872261 5.154941 5.154790 0.000000 -0.000000 0.000000 2.907085 -0.870809 12.935193 5.571075 10.251345 19.308226 2.854815 0.543128 -11.576989 0.000000 -0.000000 0.000000 -2.535745 9.041429 12.678329 2.330736 -2.625531 -1.922166 -0.574090 2.705653 -1.579355 5.631256 -3.405277 7.933847 8.117048 -13.271342 11.149635 -24.159051 5.445410 0.406558 -53.803500 -3.750154 8.251033 14.895800 -18.964064 -0.381513 3.882813 -3.559868 -8.660382 22.996706 0.655594 2.939273 51.932336 4.438255 13.137411 -7.141854 26.567374 13.925070 1.283645 3.107351 -8.250019 
-0.012340 -1.504499 0.987884 -135.180443 -2.657332 87.596502 5.864420 -10.939213 -33.500733 -7.621953 -9.278091 23.532362 -1.744621 8.019133 7.368297 0.000000 -0.000000 0.000000 1.262839 0.264500 13.009652 6.557396 10.381998 23.738078 4.171906 -0.306588 -8.661354 0.000000 -0.000000 0.000000 -3.432537 8.519026 12.244665 2.739847 -2.609205 -2.864108 -0.725290 2.410459 -0.548660 5.544817 -4.496959 6.782753 8.110941 -12.838059 12.246508 -23.811333 5.610440 0.549220 -53.831449 -4.207161 7.878695 14.974769 -18.069889 0.371367 2.798281 -3.247501 -8.664891 22.788833 -0.296875 2.366433 52.621393 3.754940 13.403920 -7.887880 26.035089 13.614271 3.339199 2.892503 -7.760204 
-0.042066 -1.486275 0.991583 -136.489754 -3.251573 87.311910 5.292407 -11.778837 -31.565504 -6.786336 -5.587159 25.312163 2.454688 10.129447 6.048883 0.000000 -0.000000 0.000000 0.314608 1.458328 11.905565 7.736394 8.891709 30.087781 5.030823 -1.574828 -4.351516 0.000000 -0.000000 0.000000 -5.059777 7.867936 11.442490 3.407452 -2.720699 -2.392423 -0.424713 2.162513 -0.326322 6.021042 -5.405939 6.618625 8.229323 -12.751854 12.413352 -23.566096 5.114978 1.128318 -53.524253 -4.711707 7.781573 15.311411 -17.617094 -0.453653 2.664890 -2.819838 -8.280462 23.273023 -0.856061 2.460209 52.714456 3.031968 13.560584 -8.990964 25.701251 12.190072 4.228639 2.634449 -7.485955 
-0.065392 -1.466099 0.996836 -137.905274 -2.899444 87.247135 5.474875 -10.113976 -28.405160 -7.831694 -4.774423 24.914230 2.887220 8.794697 4.060997 0.000000 -0.000000 0.000000 -0.831039 -0.556958 7.977930 8.440809 6.187195 39.127689 6.160800 -1.357591 3.132663 0.000000 -0.000000 0.000000 -5.997617 7.024189 10.747406 3.823924 -2.624325 -1.521772 0.123037 1.700465 -0.631865 6.266492 -6.312958 7.711402 8.751052 -11.615513 11.902023 -23.573729 4.294336 1.633938 -52.631699 -5.428403 7.310777 15.542137 -17.363455 -1.757071 3.714803 -2.921783 -7.786707 23.644553 -1.050707 2.379362 52.896557 2.747396 13.143887 -9.409207 24.623867 11.173209 6.330073 2.660421 -6.584528 
-0.089094 -1.448787 1.002849 -139.395379 -3.369610 86.561737 4.057802 -10.384550 -22.954583 -8.858410 -6.359813 20.463404 -4.396159 7.064282 7.624348 0.000000 -0.000000 0.000000 -2.222869 -0.157705 3.919267 6.125529 0.666040 48.023967 8.886630 -1.468984 12.217305 0.000000 -0.000000 0.000000 -6.765324 6.011659 11.410239 3.728744 -2.794655 -0.778816 0.586597 1.642832 -1.458325 6.095857 -6.545611 10.126835 9.360648 -10.764334 10.258228 -22.827774 2.126959 2.204031 -52.850859 -5.387790 4.794256 16.647822 -17.381049 -5.599877 0.427196 -4.088197 -2.855611 22.973679 -0.153368 2.106324 53.022771 1.314148 10.973323 -7.981752 24.671600 10.763109 6.967318 2.089413 -5.509401 
-0.109574 -1.432349 1.008140 -141.344457 -3.342456 85.596121 2.791542 -9.558748 -18.260362 -8.254178 -7.825624 19.139380 -1.539421 8.503112 4.424719 0.000000 -0.000000 0.000000 -3.083849 0.139812 -0.721104 3.476624 -3.941477 56.400638 9.125979 -5.252016 16.468555 0.000000 -0.000000 0.000000 -6.382020 4.624544 13.511113 3.325542 -2.275125 -1.261501 0.692742 1.476341 -1.578201 5.664644 -7.379513 11.379827 9.680787 -9.416576 8.922611 -23.165676 0.777088 2.873735 -51.239595 -5.813876 4.159615 17.332398 -18.740570 -7.567219 0.408865 -4.149008 -2.101713 22.660125 0.808200 1.982670 53.069912 0.109570 11.095793 -8.014032 24.857352 9.748969 5.916888 2.317190 -3.994948 
-0.126058 -1.418335 1.011659 -143.908004 -3.430834 86.068283 2.244255 -8.551230 -15.975865 -8.084539 -8.265998 18.598165 -1.354054 9.553291 1.726428 0.000000 -0.000000 0.000000 -4.020695 -0.757146 -8.331123 0.404899 -7.158749 64.301132 7.795481 -8.029246 13.397939 0.000000 -0.000000 0.000000 -6.182454 3.542056 13.969867 3.099102 -1.824603 -0.978770 0.573058 1.203215 -1.853336 5.732659 -6.818410 11.334007 9.581291 -9.110680 8.338090 -23.376862 -0.272052 3.146148 -49.708883 -6.591203 3.277812 18.511212 -19.855123 -9.520089 0.820885 -4.257410 -1.246908 22.842779 1.347379 2.168860 52.568109 0.063695 10.703559 -7.913744 25.186741 9.954669 5.790841 2.381905 -1.981495 
-0.139767 -1.403229 1.014519 -146.452953 -3.045002 86.618158 2.345190 -6.901567 -13.843761 -7.929289 -8.820879 18.127441 -1.525307 10.470221 -1.504503 0.000000 -0.000000 0.000000 -3.911751 -1.400457 -15.802084 -0.566461 -10.365460 67.948140 7.546923 -7.401801 6.522667 0.000000 -0.000000 0.000000 -5.851745 2.836852 14.562929 3.049976 -1.122680 -1.122129 0.834474 0.568186 -1.909736 6.116685 -5.836991 11.421361 9.299089 -9.415347 7.622151 -23.603532 -1.395595 3.221663 -48.519973 -7.433713 2.607831 20.217245 -20.769923 -12.305022 1.013951 -4.404774 -0.303563 23.135318 1.582351 2.498820 51.623742 0.281745 9.510312 -7.573248 25.792663 9.913204 5.951945 2.300497 -1.266459 
-0.151891 -1.386901 1.016722 -148.874726 -2.627080 86.835770 2.498281 -5.212318 -11.209554 -7.757834 -9.403415 17.397104 -1.634820 11.924182 -5.579435 0.000000 -0.000000 0.000000 -3.314657 -2.037969 -22.080892 0.267169 -13.578074 67.466945 7.453569 -5.764062 1.733669 0.000000 -0.000000 0.000000 -5.443615 1.716773 16.024194 2.859841 -0.862335 -1.960573 0.986895 0.418232 -1.987306 6.322979 -4.657928 11.856977 9.429904 -9.531678 6.949776 -23.353522 -1.992250 2.782787 -47.594382 -7.762339 2.156733 21.439172 -22.017358 -14.268623 0.925759 -3.989514 -0.224130 23.285413 1.897207 3.361251 51.287188 0.568963 8.386662 -7.574474 26.623864 9.888442 6.575681 2.082398 -1.038702 
-0.163047 -1.369422 1.017732 -151.254302 -2.279788 86.741198 2.313475 -2.929020 -8.620585 -8.132771 -11.051164 16.823667 -1.118094 10.585917 -9.552702 0.000000 -0.000000 0.000000 -2.761223 -2.774139 -27.107848 0.625599 -16.905170 63.546744 8.542300 -6.673755 -3.270543 0.000000 -0.000000 0.000000 -5.162292 0.752222 17.606677 2.488047 -0.407517 -2.836673 1.424372 0.142181 -1.882657 6.020829 -4.543978 12.096704 9.608636 -8.954824 6.821818 -23.005188 -2.443581 2.597937 -46.724102 -8.623437 1.343883 22.001121 -23.022257 -15.235712 1.948454 -4.122493 0.067302 22.872170 2.347247 3.636672 51.449990 0.145438 7.845707 -7.488201 27.479314 9.692539 7.612673 2.033721 -0.508630 
-0.173564 -1.350272 1.017823 -153.689453 -1.799358 86.168134 2.516916 -0.282760 -5.211163 -7.939788 -12.039027 16.274132 0.296364 11.552812 -10.625474 0.000000 -0.000000 0.000000 -1.653610 -3.766721 -30.201352 1.122078 -18.983381 56.522190 7.449241 -8.587096 -5.371745 0.000000 -0.000000 0.000000 -4.716319 -0.308816 19.164012 2.095390 0.309005 -3.268838 1.704189 -0.251345 -1.457260 5.863995 -4.454311 11.103101 9.747025 -8.652198 7.194363 -23.172379 -2.040871 1.914616 -44.940684 -9.935372 1.912569 21.324806 -23.973085 -14.704819 5.352707 -4.536633 -1.639200 22.787316 2.415146 3.042153 51.540591 0.166542 9.220526 -7.970510 27.061860 9.237399 8.883965 2.840882 -2.100937 
-0.183748 -1.330237 1.016256 -156.074206 -1.456710 85.998293 2.948295 1.451799 -1.909023 -7.430592 -12.492300 14.410489 -0.364440 11.654085 -11.551930 0.000000 -0.000000 0.000000 -1.008960 -4.273662 -32.541743 1.098792 -21.144644 47.595295 7.052717 -10.053703 -6.190521 0.000000 -0.000000 0.000000 -4.256656 -1.134168 20.175638 1.679519 0.794817 -3.623366 1.968757 -0.672185 -1.363628 5.866644 -4.133946 10.995035 9.968037 -8.793005 7.191952 -23.128033 -1.861719 1.682991 -43.996584 -11.220019 2.012538 21.284749 -24.314185 -14.409593 7.033049 -5.272288 -2.198666 22.696322 2.190257 2.984855 51.683894 0.662324 9.946796 -8.307973 26.419856 9.450493 8.344753 3.151622 -2.076766 
